<?xml version="1.0" standalone="no"?>
<!DOCTYPE svg PUBLIC "-//W3C//DTD SVG 20010904//EN"
 "http://www.w3.org/TR/2001/REC-SVG-20010904/DTD/svg10.dtd">
<svg version="1.0" xmlns="http://www.w3.org/2000/svg"
 width="73.000000pt" height="73.000000pt" viewBox="0 0 73.000000 73.000000"
 preserveAspectRatio="xMidYMid meet">
<metadata>
Created by potrace 1.14, written by Peter Selinger 2001-2017
</metadata>
<g transform="translate(0.000000,73.000000) scale(0.100000,-0.100000)"
fill="#000000" stroke="none">
<path d="M324 584 c9 -8 16 -22 16 -30 0 -24 24 -94 33 -94 5 0 5 5 2 10 -4 6
17 10 54 10 49 0 61 -3 61 -16 0 -8 5 -12 11 -9 6 4 8 9 6 11 -2 3 1 31 8 64
7 33 10 62 7 65 -3 3 -52 5 -109 5 -95 0 -103 -1 -89 -16z"/>
<path d="M615 459 c-4 -5 -21 -7 -39 -3 -30 5 -34 3 -41 -23 -6 -26 -7 -27
-20 -9 -18 23 -45 14 -45 -15 0 -12 9 -36 19 -53 27 -42 14 -66 -23 -46 -21
11 -26 21 -26 52 0 23 -5 38 -12 39 -160 8 -204 12 -209 21 -7 11 -65 4 -129
-17 l-45 -15 2 -77 c3 -104 11 -224 15 -228 5 -5 108 -16 170 -18 44 -2 49 0
57 25 6 16 14 28 18 29 181 18 304 97 364 234 21 46 19 65 -7 65 -8 0 -14 9
-14 19 0 21 -26 36 -35 20z"/>
</g>
</svg>
